<svg width="1440" height="1024" viewBox="0 0 1440 1024" fill="none" xmlns="http://www.w3.org/2000/svg">
<line x1="24.5" y1="2.18557e-08" x2="24.5" y2="1024" stroke="url(#paint0_linear_234_18603)"/>
<line x1="48.5" y1="2.18557e-08" x2="48.5" y2="1024" stroke="url(#paint1_linear_234_18603)"/>
<line x1="72.5" y1="2.18557e-08" x2="72.5" y2="1024" stroke="url(#paint2_linear_234_18603)"/>
<line x1="96.5" y1="2.18557e-08" x2="96.5" y2="1024" stroke="url(#paint3_linear_234_18603)"/>
<line x1="120.5" y1="2.18557e-08" x2="120.5" y2="1024" stroke="url(#paint4_linear_234_18603)"/>
<line x1="144.5" y1="2.18557e-08" x2="144.5" y2="1024" stroke="url(#paint5_linear_234_18603)"/>
<line x1="168.5" y1="2.18557e-08" x2="168.5" y2="1024" stroke="url(#paint6_linear_234_18603)"/>
<line x1="192.5" y1="2.18557e-08" x2="192.5" y2="1024" stroke="url(#paint7_linear_234_18603)"/>
<line x1="216.5" y1="2.18557e-08" x2="216.5" y2="1024" stroke="url(#paint8_linear_234_18603)"/>
<line x1="240.5" y1="2.18557e-08" x2="240.5" y2="1024" stroke="url(#paint9_linear_234_18603)"/>
<line x1="264.5" y1="2.18557e-08" x2="264.5" y2="1024" stroke="url(#paint10_linear_234_18603)"/>
<line x1="288.5" y1="2.18557e-08" x2="288.5" y2="1024" stroke="url(#paint11_linear_234_18603)"/>
<line x1="312.5" y1="2.18557e-08" x2="312.5" y2="1024" stroke="url(#paint12_linear_234_18603)"/>
<line x1="336.5" y1="2.18557e-08" x2="336.5" y2="1024" stroke="url(#paint13_linear_234_18603)"/>
<line x1="360.5" y1="2.18557e-08" x2="360.5" y2="1024" stroke="url(#paint14_linear_234_18603)"/>
<line x1="384.5" y1="2.18557e-08" x2="384.5" y2="1024" stroke="url(#paint15_linear_234_18603)"/>
<line x1="408.5" y1="2.18557e-08" x2="408.5" y2="1024" stroke="url(#paint16_linear_234_18603)"/>
<line x1="432.5" y1="2.18557e-08" x2="432.5" y2="1024" stroke="url(#paint17_linear_234_18603)"/>
<line x1="456.501" y1="2.18557e-08" x2="456.501" y2="1024" stroke="url(#paint18_linear_234_18603)"/>
<line x1="480.501" y1="2.18557e-08" x2="480.501" y2="1024" stroke="url(#paint19_linear_234_18603)"/>
<line x1="504.501" y1="2.18557e-08" x2="504.501" y2="1024" stroke="url(#paint20_linear_234_18603)"/>
<line x1="528.501" y1="2.18557e-08" x2="528.501" y2="1024" stroke="url(#paint21_linear_234_18603)"/>
<line x1="552.501" y1="2.18557e-08" x2="552.501" y2="1024" stroke="url(#paint22_linear_234_18603)"/>
<line x1="576.501" y1="2.18557e-08" x2="576.501" y2="1024" stroke="url(#paint23_linear_234_18603)"/>
<line x1="600.501" y1="2.18557e-08" x2="600.501" y2="1024" stroke="url(#paint24_linear_234_18603)"/>
<line x1="624.501" y1="2.18557e-08" x2="624.501" y2="1024" stroke="url(#paint25_linear_234_18603)"/>
<line x1="648.501" y1="2.18557e-08" x2="648.501" y2="1024" stroke="url(#paint26_linear_234_18603)"/>
<line x1="672.501" y1="2.18557e-08" x2="672.501" y2="1024" stroke="url(#paint27_linear_234_18603)"/>
<line x1="696.501" y1="2.18557e-08" x2="696.501" y2="1024" stroke="url(#paint28_linear_234_18603)"/>
<line x1="720.501" y1="2.18557e-08" x2="720.501" y2="1024" stroke="url(#paint29_linear_234_18603)"/>
<line x1="744.501" y1="2.18557e-08" x2="744.501" y2="1024" stroke="url(#paint30_linear_234_18603)"/>
<line x1="768.501" y1="2.18557e-08" x2="768.501" y2="1024" stroke="url(#paint31_linear_234_18603)"/>
<line x1="792.501" y1="2.18557e-08" x2="792.501" y2="1024" stroke="url(#paint32_linear_234_18603)"/>
<line x1="816.501" y1="2.18557e-08" x2="816.501" y2="1024" stroke="url(#paint33_linear_234_18603)"/>
<line x1="840.501" y1="2.18557e-08" x2="840.501" y2="1024" stroke="url(#paint34_linear_234_18603)"/>
<line x1="864.502" y1="2.18557e-08" x2="864.502" y2="1024" stroke="url(#paint35_linear_234_18603)"/>
<line x1="888.502" y1="2.18557e-08" x2="888.502" y2="1024" stroke="url(#paint36_linear_234_18603)"/>
<line x1="912.502" y1="2.18557e-08" x2="912.502" y2="1024" stroke="url(#paint37_linear_234_18603)"/>
<line x1="936.502" y1="2.18557e-08" x2="936.502" y2="1024" stroke="url(#paint38_linear_234_18603)"/>
<line x1="960.502" y1="2.18557e-08" x2="960.502" y2="1024" stroke="url(#paint39_linear_234_18603)"/>
<line x1="984.502" y1="2.18557e-08" x2="984.502" y2="1024" stroke="url(#paint40_linear_234_18603)"/>
<line x1="1008.5" y1="2.18557e-08" x2="1008.5" y2="1024" stroke="url(#paint41_linear_234_18603)"/>
<line x1="1032.5" y1="2.18557e-08" x2="1032.5" y2="1024" stroke="url(#paint42_linear_234_18603)"/>
<line x1="1056.5" y1="2.18557e-08" x2="1056.5" y2="1024" stroke="url(#paint43_linear_234_18603)"/>
<line x1="1080.5" y1="2.18557e-08" x2="1080.5" y2="1024" stroke="url(#paint44_linear_234_18603)"/>
<line x1="1104.5" y1="2.18557e-08" x2="1104.5" y2="1024" stroke="url(#paint45_linear_234_18603)"/>
<line x1="1128.5" y1="2.18557e-08" x2="1128.5" y2="1024" stroke="url(#paint46_linear_234_18603)"/>
<line x1="1152.5" y1="2.18557e-08" x2="1152.5" y2="1024" stroke="url(#paint47_linear_234_18603)"/>
<line x1="1176.5" y1="2.18557e-08" x2="1176.5" y2="1024" stroke="url(#paint48_linear_234_18603)"/>
<line x1="1200.5" y1="2.18557e-08" x2="1200.5" y2="1024" stroke="url(#paint49_linear_234_18603)"/>
<line x1="1224.5" y1="2.18557e-08" x2="1224.5" y2="1024" stroke="url(#paint50_linear_234_18603)"/>
<line x1="1248.5" y1="2.18557e-08" x2="1248.5" y2="1024" stroke="url(#paint51_linear_234_18603)"/>
<line x1="1272.5" y1="2.18557e-08" x2="1272.5" y2="1024" stroke="url(#paint52_linear_234_18603)"/>
<line x1="1296.5" y1="2.18557e-08" x2="1296.5" y2="1024" stroke="url(#paint53_linear_234_18603)"/>
<line x1="1320.5" y1="2.18557e-08" x2="1320.5" y2="1024" stroke="url(#paint54_linear_234_18603)"/>
<line x1="1344.5" y1="2.18557e-08" x2="1344.5" y2="1024" stroke="url(#paint55_linear_234_18603)"/>
<line x1="1368.5" y1="2.18557e-08" x2="1368.5" y2="1024" stroke="url(#paint56_linear_234_18603)"/>
<line x1="1392.5" y1="2.18557e-08" x2="1392.5" y2="1024" stroke="url(#paint57_linear_234_18603)"/>
<line x1="1416.5" y1="2.18557e-08" x2="1416.5" y2="1024" stroke="url(#paint58_linear_234_18603)"/>
<line y1="-0.5" x2="1440" y2="-0.5" transform="matrix(1 -8.74228e-08 -8.74228e-08 -1 0 20.0001)" stroke="url(#paint59_linear_234_18603)"/>
<line y1="-0.5" x2="1440" y2="-0.5" transform="matrix(1 -8.74228e-08 -8.74228e-08 -1 0 44.0001)" stroke="url(#paint60_linear_234_18603)"/>
<line y1="-0.5" x2="1440" y2="-0.5" transform="matrix(1 -8.74228e-08 -8.74228e-08 -1 0 68.0004)" stroke="url(#paint61_linear_234_18603)"/>
<line y1="-0.5" x2="1440" y2="-0.5" transform="matrix(1 -8.74228e-08 -8.74228e-08 -1 0 92.0005)" stroke="url(#paint62_linear_234_18603)"/>
<line y1="-0.5" x2="1440" y2="-0.5" transform="matrix(1 -8.74228e-08 -8.74228e-08 -1 0 116.001)" stroke="url(#paint63_linear_234_18603)"/>
<line y1="-0.5" x2="1440" y2="-0.5" transform="matrix(1 -8.74228e-08 -8.74228e-08 -1 0 140.001)" stroke="url(#paint64_linear_234_18603)"/>
<line y1="-0.5" x2="1440" y2="-0.5" transform="matrix(1 -8.74228e-08 -8.74228e-08 -1 0 164.001)" stroke="url(#paint65_linear_234_18603)"/>
<line y1="-0.5" x2="1440" y2="-0.5" transform="matrix(1 -8.74228e-08 -8.74228e-08 -1 0 188.001)" stroke="url(#paint66_linear_234_18603)"/>
<line y1="-0.5" x2="1440" y2="-0.5" transform="matrix(1 -8.74228e-08 -8.74228e-08 -1 0 212.001)" stroke="url(#paint67_linear_234_18603)"/>
<line y1="-0.5" x2="1440" y2="-0.5" transform="matrix(1 -8.74228e-08 -8.74228e-08 -1 0 236.001)" stroke="url(#paint68_linear_234_18603)"/>
<line y1="-0.5" x2="1440" y2="-0.5" transform="matrix(1 -8.74228e-08 -8.74228e-08 -1 0 260.001)" stroke="url(#paint69_linear_234_18603)"/>
<line y1="-0.5" x2="1440" y2="-0.5" transform="matrix(1 -8.74228e-08 -8.74228e-08 -1 0 284.001)" stroke="url(#paint70_linear_234_18603)"/>
<line y1="-0.5" x2="1440" y2="-0.5" transform="matrix(1 -8.74228e-08 -8.74228e-08 -1 0 308.002)" stroke="url(#paint71_linear_234_18603)"/>
<line y1="-0.5" x2="1440" y2="-0.5" transform="matrix(1 -8.74228e-08 -8.74228e-08 -1 0 332.002)" stroke="url(#paint72_linear_234_18603)"/>
<line y1="-0.5" x2="1440" y2="-0.5" transform="matrix(1 -8.74228e-08 -8.74228e-08 -1 0 356.002)" stroke="url(#paint73_linear_234_18603)"/>
<line y1="-0.5" x2="1440" y2="-0.5" transform="matrix(1 -8.74228e-08 -8.74228e-08 -1 0 380.002)" stroke="url(#paint74_linear_234_18603)"/>
<line y1="-0.5" x2="1440" y2="-0.5" transform="matrix(1 -8.74228e-08 -8.74228e-08 -1 0 404.002)" stroke="url(#paint75_linear_234_18603)"/>
<line y1="-0.5" x2="1440" y2="-0.5" transform="matrix(1 -8.74228e-08 -8.74228e-08 -1 0 428.002)" stroke="url(#paint76_linear_234_18603)"/>
<line y1="-0.5" x2="1440" y2="-0.5" transform="matrix(1 -8.74228e-08 -8.74228e-08 -1 0 452.002)" stroke="url(#paint77_linear_234_18603)"/>
<line y1="-0.5" x2="1440" y2="-0.5" transform="matrix(1 -8.74228e-08 -8.74228e-08 -1 0 476.002)" stroke="url(#paint78_linear_234_18603)"/>
<line y1="-0.5" x2="1440" y2="-0.5" transform="matrix(1 -8.74228e-08 -8.74228e-08 -1 0 500.003)" stroke="url(#paint79_linear_234_18603)"/>
<line y1="-0.5" x2="1440" y2="-0.5" transform="matrix(1 -8.74228e-08 -8.74228e-08 -1 0 524.003)" stroke="url(#paint80_linear_234_18603)"/>
<line y1="-0.5" x2="1440" y2="-0.5" transform="matrix(1 -8.74228e-08 -8.74228e-08 -1 0 548.003)" stroke="url(#paint81_linear_234_18603)"/>
<line y1="-0.5" x2="1440" y2="-0.5" transform="matrix(1 -8.74228e-08 -8.74228e-08 -1 0 572.003)" stroke="url(#paint82_linear_234_18603)"/>
<line y1="-0.5" x2="1440" y2="-0.5" transform="matrix(1 -8.74228e-08 -8.74228e-08 -1 0 596.003)" stroke="url(#paint83_linear_234_18603)"/>
<line y1="-0.5" x2="1440" y2="-0.5" transform="matrix(1 -8.74228e-08 -8.74228e-08 -1 0 620.003)" stroke="url(#paint84_linear_234_18603)"/>
<line y1="-0.5" x2="1440" y2="-0.5" transform="matrix(1 -8.74228e-08 -8.74228e-08 -1 0 644.003)" stroke="url(#paint85_linear_234_18603)"/>
<line y1="-0.5" x2="1440" y2="-0.5" transform="matrix(1 -8.74228e-08 -8.74228e-08 -1 0 668.003)" stroke="url(#paint86_linear_234_18603)"/>
<line y1="-0.5" x2="1440" y2="-0.5" transform="matrix(1 -8.74228e-08 -8.74228e-08 -1 0 692.004)" stroke="url(#paint87_linear_234_18603)"/>
<line y1="-0.5" x2="1440" y2="-0.5" transform="matrix(1 -8.74228e-08 -8.74228e-08 -1 0 716.004)" stroke="url(#paint88_linear_234_18603)"/>
<line y1="-0.5" x2="1440" y2="-0.5" transform="matrix(1 -8.74228e-08 -8.74228e-08 -1 0 740.004)" stroke="url(#paint89_linear_234_18603)"/>
<line y1="-0.5" x2="1440" y2="-0.5" transform="matrix(1 -8.74228e-08 -8.74228e-08 -1 0 764.004)" stroke="url(#paint90_linear_234_18603)"/>
<line y1="-0.5" x2="1440" y2="-0.5" transform="matrix(1 -8.74228e-08 -8.74228e-08 -1 0 788.004)" stroke="url(#paint91_linear_234_18603)"/>
<line y1="-0.5" x2="1440" y2="-0.5" transform="matrix(1 -8.74228e-08 -8.74228e-08 -1 0 812.004)" stroke="url(#paint92_linear_234_18603)"/>
<line y1="-0.5" x2="1440" y2="-0.5" transform="matrix(1 -8.74228e-08 -8.74228e-08 -1 0 836.004)" stroke="url(#paint93_linear_234_18603)"/>
<line y1="-0.5" x2="1440" y2="-0.5" transform="matrix(1 -8.74228e-08 -8.74228e-08 -1 0 860.004)" stroke="url(#paint94_linear_234_18603)"/>
<line y1="-0.5" x2="1440" y2="-0.5" transform="matrix(1 -8.74228e-08 -8.74228e-08 -1 0 884.005)" stroke="url(#paint95_linear_234_18603)"/>
<line y1="-0.5" x2="1440" y2="-0.5" transform="matrix(1 -8.74228e-08 -8.74228e-08 -1 0 908.005)" stroke="url(#paint96_linear_234_18603)"/>
<line y1="-0.5" x2="1440" y2="-0.5" transform="matrix(1 -8.74228e-08 -8.74228e-08 -1 0 932.005)" stroke="url(#paint97_linear_234_18603)"/>
<line y1="-0.5" x2="1440" y2="-0.5" transform="matrix(1 -8.74228e-08 -8.74228e-08 -1 0 956.005)" stroke="url(#paint98_linear_234_18603)"/>
<line y1="-0.5" x2="1440" y2="-0.5" transform="matrix(1 -8.74228e-08 -8.74228e-08 -1 0 980.005)" stroke="url(#paint99_linear_234_18603)"/>
<line y1="-0.5" x2="1440" y2="-0.5" transform="matrix(1 -8.74228e-08 -8.74228e-08 -1 0 1004.01)" stroke="url(#paint100_linear_234_18603)"/>
<defs>
<linearGradient id="paint0_linear_234_18603" x1="23.5" y1="-2.18557e-08" x2="23.5" y2="1024" gradientUnits="userSpaceOnUse">
<stop stop-color="white"/>
<stop offset="1" stop-color="white" stop-opacity="0.5"/>
</linearGradient>
<linearGradient id="paint1_linear_234_18603" x1="47.5" y1="-2.18557e-08" x2="47.5" y2="1024" gradientUnits="userSpaceOnUse">
<stop stop-color="white"/>
<stop offset="1" stop-color="white" stop-opacity="0.5"/>
</linearGradient>
<linearGradient id="paint2_linear_234_18603" x1="71.5" y1="-2.18557e-08" x2="71.5" y2="1024" gradientUnits="userSpaceOnUse">
<stop stop-color="white"/>
<stop offset="1" stop-color="white" stop-opacity="0.5"/>
</linearGradient>
<linearGradient id="paint3_linear_234_18603" x1="95.5" y1="-2.18557e-08" x2="95.5" y2="1024" gradientUnits="userSpaceOnUse">
<stop stop-color="white"/>
<stop offset="1" stop-color="white" stop-opacity="0.5"/>
</linearGradient>
<linearGradient id="paint4_linear_234_18603" x1="119.5" y1="-2.18557e-08" x2="119.5" y2="1024" gradientUnits="userSpaceOnUse">
<stop stop-color="white"/>
<stop offset="1" stop-color="white" stop-opacity="0.5"/>
</linearGradient>
<linearGradient id="paint5_linear_234_18603" x1="143.5" y1="-2.18557e-08" x2="143.5" y2="1024" gradientUnits="userSpaceOnUse">
<stop stop-color="white"/>
<stop offset="1" stop-color="white" stop-opacity="0.5"/>
</linearGradient>
<linearGradient id="paint6_linear_234_18603" x1="167.5" y1="-2.18557e-08" x2="167.5" y2="1024" gradientUnits="userSpaceOnUse">
<stop stop-color="white"/>
<stop offset="1" stop-color="white" stop-opacity="0.5"/>
</linearGradient>
<linearGradient id="paint7_linear_234_18603" x1="191.5" y1="-2.18557e-08" x2="191.5" y2="1024" gradientUnits="userSpaceOnUse">
<stop stop-color="white"/>
<stop offset="1" stop-color="white" stop-opacity="0.5"/>
</linearGradient>
<linearGradient id="paint8_linear_234_18603" x1="215.5" y1="-2.18557e-08" x2="215.5" y2="1024" gradientUnits="userSpaceOnUse">
<stop stop-color="white"/>
<stop offset="1" stop-color="white" stop-opacity="0.5"/>
</linearGradient>
<linearGradient id="paint9_linear_234_18603" x1="239.5" y1="-2.18557e-08" x2="239.5" y2="1024" gradientUnits="userSpaceOnUse">
<stop stop-color="white"/>
<stop offset="1" stop-color="white" stop-opacity="0.5"/>
</linearGradient>
<linearGradient id="paint10_linear_234_18603" x1="263.5" y1="-2.18557e-08" x2="263.5" y2="1024" gradientUnits="userSpaceOnUse">
<stop stop-color="white"/>
<stop offset="1" stop-color="white" stop-opacity="0.5"/>
</linearGradient>
<linearGradient id="paint11_linear_234_18603" x1="287.5" y1="-2.18557e-08" x2="287.5" y2="1024" gradientUnits="userSpaceOnUse">
<stop stop-color="white"/>
<stop offset="1" stop-color="white" stop-opacity="0.5"/>
</linearGradient>
<linearGradient id="paint12_linear_234_18603" x1="311.5" y1="-2.18557e-08" x2="311.5" y2="1024" gradientUnits="userSpaceOnUse">
<stop stop-color="white"/>
<stop offset="1" stop-color="white" stop-opacity="0.5"/>
</linearGradient>
<linearGradient id="paint13_linear_234_18603" x1="335.5" y1="-2.18557e-08" x2="335.5" y2="1024" gradientUnits="userSpaceOnUse">
<stop stop-color="white"/>
<stop offset="1" stop-color="white" stop-opacity="0.5"/>
</linearGradient>
<linearGradient id="paint14_linear_234_18603" x1="359.5" y1="-2.18557e-08" x2="359.5" y2="1024" gradientUnits="userSpaceOnUse">
<stop stop-color="white"/>
<stop offset="1" stop-color="white" stop-opacity="0.5"/>
</linearGradient>
<linearGradient id="paint15_linear_234_18603" x1="383.5" y1="-2.18557e-08" x2="383.5" y2="1024" gradientUnits="userSpaceOnUse">
<stop stop-color="white"/>
<stop offset="1" stop-color="white" stop-opacity="0.5"/>
</linearGradient>
<linearGradient id="paint16_linear_234_18603" x1="407.5" y1="-2.18557e-08" x2="407.5" y2="1024" gradientUnits="userSpaceOnUse">
<stop stop-color="white"/>
<stop offset="1" stop-color="white" stop-opacity="0.5"/>
</linearGradient>
<linearGradient id="paint17_linear_234_18603" x1="431.5" y1="-2.18557e-08" x2="431.5" y2="1024" gradientUnits="userSpaceOnUse">
<stop stop-color="white"/>
<stop offset="1" stop-color="white" stop-opacity="0.5"/>
</linearGradient>
<linearGradient id="paint18_linear_234_18603" x1="455.501" y1="-2.18557e-08" x2="455.501" y2="1024" gradientUnits="userSpaceOnUse">
<stop stop-color="white"/>
<stop offset="1" stop-color="white" stop-opacity="0.5"/>
</linearGradient>
<linearGradient id="paint19_linear_234_18603" x1="479.501" y1="-2.18557e-08" x2="479.501" y2="1024" gradientUnits="userSpaceOnUse">
<stop stop-color="white"/>
<stop offset="1" stop-color="white" stop-opacity="0.5"/>
</linearGradient>
<linearGradient id="paint20_linear_234_18603" x1="503.501" y1="-2.18557e-08" x2="503.501" y2="1024" gradientUnits="userSpaceOnUse">
<stop stop-color="white"/>
<stop offset="1" stop-color="white" stop-opacity="0.5"/>
</linearGradient>
<linearGradient id="paint21_linear_234_18603" x1="527.501" y1="-2.18557e-08" x2="527.501" y2="1024" gradientUnits="userSpaceOnUse">
<stop stop-color="white"/>
<stop offset="1" stop-color="white" stop-opacity="0.5"/>
</linearGradient>
<linearGradient id="paint22_linear_234_18603" x1="551.501" y1="-2.18557e-08" x2="551.501" y2="1024" gradientUnits="userSpaceOnUse">
<stop stop-color="white"/>
<stop offset="1" stop-color="white" stop-opacity="0.5"/>
</linearGradient>
<linearGradient id="paint23_linear_234_18603" x1="575.501" y1="-2.18557e-08" x2="575.501" y2="1024" gradientUnits="userSpaceOnUse">
<stop stop-color="white"/>
<stop offset="1" stop-color="white" stop-opacity="0.5"/>
</linearGradient>
<linearGradient id="paint24_linear_234_18603" x1="599.501" y1="-2.18557e-08" x2="599.501" y2="1024" gradientUnits="userSpaceOnUse">
<stop stop-color="white"/>
<stop offset="1" stop-color="white" stop-opacity="0.5"/>
</linearGradient>
<linearGradient id="paint25_linear_234_18603" x1="623.501" y1="-2.18557e-08" x2="623.501" y2="1024" gradientUnits="userSpaceOnUse">
<stop stop-color="white"/>
<stop offset="1" stop-color="white" stop-opacity="0.5"/>
</linearGradient>
<linearGradient id="paint26_linear_234_18603" x1="647.501" y1="-2.18557e-08" x2="647.501" y2="1024" gradientUnits="userSpaceOnUse">
<stop stop-color="white"/>
<stop offset="1" stop-color="white" stop-opacity="0.5"/>
</linearGradient>
<linearGradient id="paint27_linear_234_18603" x1="671.501" y1="-2.18557e-08" x2="671.501" y2="1024" gradientUnits="userSpaceOnUse">
<stop stop-color="white"/>
<stop offset="1" stop-color="white" stop-opacity="0.5"/>
</linearGradient>
<linearGradient id="paint28_linear_234_18603" x1="695.501" y1="-2.18557e-08" x2="695.501" y2="1024" gradientUnits="userSpaceOnUse">
<stop stop-color="white"/>
<stop offset="1" stop-color="white" stop-opacity="0.5"/>
</linearGradient>
<linearGradient id="paint29_linear_234_18603" x1="719.501" y1="-2.18557e-08" x2="719.501" y2="1024" gradientUnits="userSpaceOnUse">
<stop stop-color="white"/>
<stop offset="1" stop-color="white" stop-opacity="0.5"/>
</linearGradient>
<linearGradient id="paint30_linear_234_18603" x1="743.501" y1="-2.18557e-08" x2="743.501" y2="1024" gradientUnits="userSpaceOnUse">
<stop stop-color="white"/>
<stop offset="1" stop-color="white" stop-opacity="0.5"/>
</linearGradient>
<linearGradient id="paint31_linear_234_18603" x1="767.501" y1="-2.18557e-08" x2="767.501" y2="1024" gradientUnits="userSpaceOnUse">
<stop stop-color="white"/>
<stop offset="1" stop-color="white" stop-opacity="0.5"/>
</linearGradient>
<linearGradient id="paint32_linear_234_18603" x1="791.501" y1="-2.18557e-08" x2="791.501" y2="1024" gradientUnits="userSpaceOnUse">
<stop stop-color="white"/>
<stop offset="1" stop-color="white" stop-opacity="0.5"/>
</linearGradient>
<linearGradient id="paint33_linear_234_18603" x1="815.501" y1="-2.18557e-08" x2="815.501" y2="1024" gradientUnits="userSpaceOnUse">
<stop stop-color="white"/>
<stop offset="1" stop-color="white" stop-opacity="0.5"/>
</linearGradient>
<linearGradient id="paint34_linear_234_18603" x1="839.501" y1="-2.18557e-08" x2="839.501" y2="1024" gradientUnits="userSpaceOnUse">
<stop stop-color="white"/>
<stop offset="1" stop-color="white" stop-opacity="0.5"/>
</linearGradient>
<linearGradient id="paint35_linear_234_18603" x1="863.502" y1="-2.18557e-08" x2="863.502" y2="1024" gradientUnits="userSpaceOnUse">
<stop stop-color="white"/>
<stop offset="1" stop-color="white" stop-opacity="0.5"/>
</linearGradient>
<linearGradient id="paint36_linear_234_18603" x1="887.502" y1="-2.18557e-08" x2="887.502" y2="1024" gradientUnits="userSpaceOnUse">
<stop stop-color="white"/>
<stop offset="1" stop-color="white" stop-opacity="0.5"/>
</linearGradient>
<linearGradient id="paint37_linear_234_18603" x1="911.502" y1="-2.18557e-08" x2="911.502" y2="1024" gradientUnits="userSpaceOnUse">
<stop stop-color="white"/>
<stop offset="1" stop-color="white" stop-opacity="0.5"/>
</linearGradient>
<linearGradient id="paint38_linear_234_18603" x1="935.502" y1="-2.18557e-08" x2="935.502" y2="1024" gradientUnits="userSpaceOnUse">
<stop stop-color="white"/>
<stop offset="1" stop-color="white" stop-opacity="0.5"/>
</linearGradient>
<linearGradient id="paint39_linear_234_18603" x1="959.502" y1="-2.18557e-08" x2="959.502" y2="1024" gradientUnits="userSpaceOnUse">
<stop stop-color="white"/>
<stop offset="1" stop-color="white" stop-opacity="0.5"/>
</linearGradient>
<linearGradient id="paint40_linear_234_18603" x1="983.502" y1="-2.18557e-08" x2="983.502" y2="1024" gradientUnits="userSpaceOnUse">
<stop stop-color="white"/>
<stop offset="1" stop-color="white" stop-opacity="0.5"/>
</linearGradient>
<linearGradient id="paint41_linear_234_18603" x1="1007.5" y1="-2.18557e-08" x2="1007.5" y2="1024" gradientUnits="userSpaceOnUse">
<stop stop-color="white"/>
<stop offset="1" stop-color="white" stop-opacity="0.5"/>
</linearGradient>
<linearGradient id="paint42_linear_234_18603" x1="1031.5" y1="-2.18557e-08" x2="1031.5" y2="1024" gradientUnits="userSpaceOnUse">
<stop stop-color="white"/>
<stop offset="1" stop-color="white" stop-opacity="0.5"/>
</linearGradient>
<linearGradient id="paint43_linear_234_18603" x1="1055.5" y1="-2.18557e-08" x2="1055.5" y2="1024" gradientUnits="userSpaceOnUse">
<stop stop-color="white"/>
<stop offset="1" stop-color="white" stop-opacity="0.5"/>
</linearGradient>
<linearGradient id="paint44_linear_234_18603" x1="1079.5" y1="-2.18557e-08" x2="1079.5" y2="1024" gradientUnits="userSpaceOnUse">
<stop stop-color="white"/>
<stop offset="1" stop-color="white" stop-opacity="0.5"/>
</linearGradient>
<linearGradient id="paint45_linear_234_18603" x1="1103.5" y1="-2.18557e-08" x2="1103.5" y2="1024" gradientUnits="userSpaceOnUse">
<stop stop-color="white"/>
<stop offset="1" stop-color="white" stop-opacity="0.5"/>
</linearGradient>
<linearGradient id="paint46_linear_234_18603" x1="1127.5" y1="-2.18557e-08" x2="1127.5" y2="1024" gradientUnits="userSpaceOnUse">
<stop stop-color="white"/>
<stop offset="1" stop-color="white" stop-opacity="0.5"/>
</linearGradient>
<linearGradient id="paint47_linear_234_18603" x1="1151.5" y1="-2.18557e-08" x2="1151.5" y2="1024" gradientUnits="userSpaceOnUse">
<stop stop-color="white"/>
<stop offset="1" stop-color="white" stop-opacity="0.5"/>
</linearGradient>
<linearGradient id="paint48_linear_234_18603" x1="1175.5" y1="-2.18557e-08" x2="1175.5" y2="1024" gradientUnits="userSpaceOnUse">
<stop stop-color="white"/>
<stop offset="1" stop-color="white" stop-opacity="0.5"/>
</linearGradient>
<linearGradient id="paint49_linear_234_18603" x1="1199.5" y1="-2.18557e-08" x2="1199.5" y2="1024" gradientUnits="userSpaceOnUse">
<stop stop-color="white"/>
<stop offset="1" stop-color="white" stop-opacity="0.5"/>
</linearGradient>
<linearGradient id="paint50_linear_234_18603" x1="1223.5" y1="-2.18557e-08" x2="1223.5" y2="1024" gradientUnits="userSpaceOnUse">
<stop stop-color="white"/>
<stop offset="1" stop-color="white" stop-opacity="0.5"/>
</linearGradient>
<linearGradient id="paint51_linear_234_18603" x1="1247.5" y1="-2.18557e-08" x2="1247.5" y2="1024" gradientUnits="userSpaceOnUse">
<stop stop-color="white"/>
<stop offset="1" stop-color="white" stop-opacity="0.5"/>
</linearGradient>
<linearGradient id="paint52_linear_234_18603" x1="1271.5" y1="-2.18557e-08" x2="1271.5" y2="1024" gradientUnits="userSpaceOnUse">
<stop stop-color="white"/>
<stop offset="1" stop-color="white" stop-opacity="0.5"/>
</linearGradient>
<linearGradient id="paint53_linear_234_18603" x1="1295.5" y1="-2.18557e-08" x2="1295.5" y2="1024" gradientUnits="userSpaceOnUse">
<stop stop-color="white"/>
<stop offset="1" stop-color="white" stop-opacity="0.5"/>
</linearGradient>
<linearGradient id="paint54_linear_234_18603" x1="1319.5" y1="-2.18557e-08" x2="1319.5" y2="1024" gradientUnits="userSpaceOnUse">
<stop stop-color="white"/>
<stop offset="1" stop-color="white" stop-opacity="0.5"/>
</linearGradient>
<linearGradient id="paint55_linear_234_18603" x1="1343.5" y1="-2.18557e-08" x2="1343.5" y2="1024" gradientUnits="userSpaceOnUse">
<stop stop-color="white"/>
<stop offset="1" stop-color="white" stop-opacity="0.5"/>
</linearGradient>
<linearGradient id="paint56_linear_234_18603" x1="1367.5" y1="-2.18557e-08" x2="1367.5" y2="1024" gradientUnits="userSpaceOnUse">
<stop stop-color="white"/>
<stop offset="1" stop-color="white" stop-opacity="0.5"/>
</linearGradient>
<linearGradient id="paint57_linear_234_18603" x1="1391.5" y1="-2.18557e-08" x2="1391.5" y2="1024" gradientUnits="userSpaceOnUse">
<stop stop-color="white"/>
<stop offset="1" stop-color="white" stop-opacity="0.5"/>
</linearGradient>
<linearGradient id="paint58_linear_234_18603" x1="1415.5" y1="-2.18557e-08" x2="1415.5" y2="1024" gradientUnits="userSpaceOnUse">
<stop stop-color="white"/>
<stop offset="1" stop-color="white" stop-opacity="0.5"/>
</linearGradient>
<linearGradient id="paint59_linear_234_18603" x1="0" y1="0.5" x2="1440" y2="0.5" gradientUnits="userSpaceOnUse">
<stop stop-color="white"/>
<stop offset="1" stop-color="white" stop-opacity="0.5"/>
</linearGradient>
<linearGradient id="paint60_linear_234_18603" x1="0" y1="0.5" x2="1440" y2="0.5" gradientUnits="userSpaceOnUse">
<stop stop-color="white"/>
<stop offset="1" stop-color="white" stop-opacity="0.5"/>
</linearGradient>
<linearGradient id="paint61_linear_234_18603" x1="0" y1="0.5" x2="1440" y2="0.5" gradientUnits="userSpaceOnUse">
<stop stop-color="white"/>
<stop offset="1" stop-color="white" stop-opacity="0.5"/>
</linearGradient>
<linearGradient id="paint62_linear_234_18603" x1="0" y1="0.5" x2="1440" y2="0.5" gradientUnits="userSpaceOnUse">
<stop stop-color="white"/>
<stop offset="1" stop-color="white" stop-opacity="0.5"/>
</linearGradient>
<linearGradient id="paint63_linear_234_18603" x1="0" y1="0.5" x2="1440" y2="0.5" gradientUnits="userSpaceOnUse">
<stop stop-color="white"/>
<stop offset="1" stop-color="white" stop-opacity="0.5"/>
</linearGradient>
<linearGradient id="paint64_linear_234_18603" x1="0" y1="0.5" x2="1440" y2="0.5" gradientUnits="userSpaceOnUse">
<stop stop-color="white"/>
<stop offset="1" stop-color="white" stop-opacity="0.5"/>
</linearGradient>
<linearGradient id="paint65_linear_234_18603" x1="0" y1="0.5" x2="1440" y2="0.5" gradientUnits="userSpaceOnUse">
<stop stop-color="white"/>
<stop offset="1" stop-color="white" stop-opacity="0.5"/>
</linearGradient>
<linearGradient id="paint66_linear_234_18603" x1="0" y1="0.5" x2="1440" y2="0.5" gradientUnits="userSpaceOnUse">
<stop stop-color="white"/>
<stop offset="1" stop-color="white" stop-opacity="0.5"/>
</linearGradient>
<linearGradient id="paint67_linear_234_18603" x1="0" y1="0.5" x2="1440" y2="0.5" gradientUnits="userSpaceOnUse">
<stop stop-color="white"/>
<stop offset="1" stop-color="white" stop-opacity="0.5"/>
</linearGradient>
<linearGradient id="paint68_linear_234_18603" x1="0" y1="0.5" x2="1440" y2="0.5" gradientUnits="userSpaceOnUse">
<stop stop-color="white"/>
<stop offset="1" stop-color="white" stop-opacity="0.5"/>
</linearGradient>
<linearGradient id="paint69_linear_234_18603" x1="0" y1="0.5" x2="1440" y2="0.5" gradientUnits="userSpaceOnUse">
<stop stop-color="white"/>
<stop offset="1" stop-color="white" stop-opacity="0.5"/>
</linearGradient>
<linearGradient id="paint70_linear_234_18603" x1="0" y1="0.5" x2="1440" y2="0.5" gradientUnits="userSpaceOnUse">
<stop stop-color="white"/>
<stop offset="1" stop-color="white" stop-opacity="0.5"/>
</linearGradient>
<linearGradient id="paint71_linear_234_18603" x1="0" y1="0.5" x2="1440" y2="0.5" gradientUnits="userSpaceOnUse">
<stop stop-color="white"/>
<stop offset="1" stop-color="white" stop-opacity="0.5"/>
</linearGradient>
<linearGradient id="paint72_linear_234_18603" x1="0" y1="0.5" x2="1440" y2="0.5" gradientUnits="userSpaceOnUse">
<stop stop-color="white"/>
<stop offset="1" stop-color="white" stop-opacity="0.5"/>
</linearGradient>
<linearGradient id="paint73_linear_234_18603" x1="0" y1="0.5" x2="1440" y2="0.5" gradientUnits="userSpaceOnUse">
<stop stop-color="white"/>
<stop offset="1" stop-color="white" stop-opacity="0.5"/>
</linearGradient>
<linearGradient id="paint74_linear_234_18603" x1="0" y1="0.5" x2="1440" y2="0.5" gradientUnits="userSpaceOnUse">
<stop stop-color="white"/>
<stop offset="1" stop-color="white" stop-opacity="0.5"/>
</linearGradient>
<linearGradient id="paint75_linear_234_18603" x1="0" y1="0.5" x2="1440" y2="0.5" gradientUnits="userSpaceOnUse">
<stop stop-color="white"/>
<stop offset="1" stop-color="white" stop-opacity="0.5"/>
</linearGradient>
<linearGradient id="paint76_linear_234_18603" x1="0" y1="0.5" x2="1440" y2="0.5" gradientUnits="userSpaceOnUse">
<stop stop-color="white"/>
<stop offset="1" stop-color="white" stop-opacity="0.5"/>
</linearGradient>
<linearGradient id="paint77_linear_234_18603" x1="0" y1="0.5" x2="1440" y2="0.5" gradientUnits="userSpaceOnUse">
<stop stop-color="white"/>
<stop offset="1" stop-color="white" stop-opacity="0.5"/>
</linearGradient>
<linearGradient id="paint78_linear_234_18603" x1="0" y1="0.5" x2="1440" y2="0.5" gradientUnits="userSpaceOnUse">
<stop stop-color="white"/>
<stop offset="1" stop-color="white" stop-opacity="0.5"/>
</linearGradient>
<linearGradient id="paint79_linear_234_18603" x1="0" y1="0.5" x2="1440" y2="0.5" gradientUnits="userSpaceOnUse">
<stop stop-color="white"/>
<stop offset="1" stop-color="white" stop-opacity="0.5"/>
</linearGradient>
<linearGradient id="paint80_linear_234_18603" x1="0" y1="0.5" x2="1440" y2="0.5" gradientUnits="userSpaceOnUse">
<stop stop-color="white"/>
<stop offset="1" stop-color="white" stop-opacity="0.5"/>
</linearGradient>
<linearGradient id="paint81_linear_234_18603" x1="0" y1="0.5" x2="1440" y2="0.5" gradientUnits="userSpaceOnUse">
<stop stop-color="white"/>
<stop offset="1" stop-color="white" stop-opacity="0.5"/>
</linearGradient>
<linearGradient id="paint82_linear_234_18603" x1="0" y1="0.5" x2="1440" y2="0.5" gradientUnits="userSpaceOnUse">
<stop stop-color="white"/>
<stop offset="1" stop-color="white" stop-opacity="0.5"/>
</linearGradient>
<linearGradient id="paint83_linear_234_18603" x1="0" y1="0.5" x2="1440" y2="0.5" gradientUnits="userSpaceOnUse">
<stop stop-color="white"/>
<stop offset="1" stop-color="white" stop-opacity="0.5"/>
</linearGradient>
<linearGradient id="paint84_linear_234_18603" x1="0" y1="0.5" x2="1440" y2="0.5" gradientUnits="userSpaceOnUse">
<stop stop-color="white"/>
<stop offset="1" stop-color="white" stop-opacity="0.5"/>
</linearGradient>
<linearGradient id="paint85_linear_234_18603" x1="0" y1="0.5" x2="1440" y2="0.5" gradientUnits="userSpaceOnUse">
<stop stop-color="white"/>
<stop offset="1" stop-color="white" stop-opacity="0.5"/>
</linearGradient>
<linearGradient id="paint86_linear_234_18603" x1="0" y1="0.5" x2="1440" y2="0.5" gradientUnits="userSpaceOnUse">
<stop stop-color="white"/>
<stop offset="1" stop-color="white" stop-opacity="0.5"/>
</linearGradient>
<linearGradient id="paint87_linear_234_18603" x1="0" y1="0.5" x2="1440" y2="0.5" gradientUnits="userSpaceOnUse">
<stop stop-color="white"/>
<stop offset="1" stop-color="white" stop-opacity="0.5"/>
</linearGradient>
<linearGradient id="paint88_linear_234_18603" x1="0" y1="0.5" x2="1440" y2="0.5" gradientUnits="userSpaceOnUse">
<stop stop-color="white"/>
<stop offset="1" stop-color="white" stop-opacity="0.5"/>
</linearGradient>
<linearGradient id="paint89_linear_234_18603" x1="0" y1="0.5" x2="1440" y2="0.5" gradientUnits="userSpaceOnUse">
<stop stop-color="white"/>
<stop offset="1" stop-color="white" stop-opacity="0.5"/>
</linearGradient>
<linearGradient id="paint90_linear_234_18603" x1="0" y1="0.5" x2="1440" y2="0.5" gradientUnits="userSpaceOnUse">
<stop stop-color="white"/>
<stop offset="1" stop-color="white" stop-opacity="0.5"/>
</linearGradient>
<linearGradient id="paint91_linear_234_18603" x1="0" y1="0.5" x2="1440" y2="0.5" gradientUnits="userSpaceOnUse">
<stop stop-color="white"/>
<stop offset="1" stop-color="white" stop-opacity="0.5"/>
</linearGradient>
<linearGradient id="paint92_linear_234_18603" x1="0" y1="0.5" x2="1440" y2="0.5" gradientUnits="userSpaceOnUse">
<stop stop-color="white"/>
<stop offset="1" stop-color="white" stop-opacity="0.5"/>
</linearGradient>
<linearGradient id="paint93_linear_234_18603" x1="0" y1="0.5" x2="1440" y2="0.5" gradientUnits="userSpaceOnUse">
<stop stop-color="white"/>
<stop offset="1" stop-color="white" stop-opacity="0.5"/>
</linearGradient>
<linearGradient id="paint94_linear_234_18603" x1="0" y1="0.5" x2="1440" y2="0.5" gradientUnits="userSpaceOnUse">
<stop stop-color="white"/>
<stop offset="1" stop-color="white" stop-opacity="0.5"/>
</linearGradient>
<linearGradient id="paint95_linear_234_18603" x1="0" y1="0.5" x2="1440" y2="0.5" gradientUnits="userSpaceOnUse">
<stop stop-color="white"/>
<stop offset="1" stop-color="white" stop-opacity="0.5"/>
</linearGradient>
<linearGradient id="paint96_linear_234_18603" x1="0" y1="0.5" x2="1440" y2="0.5" gradientUnits="userSpaceOnUse">
<stop stop-color="white"/>
<stop offset="1" stop-color="white" stop-opacity="0.5"/>
</linearGradient>
<linearGradient id="paint97_linear_234_18603" x1="0" y1="0.5" x2="1440" y2="0.5" gradientUnits="userSpaceOnUse">
<stop stop-color="white"/>
<stop offset="1" stop-color="white" stop-opacity="0.5"/>
</linearGradient>
<linearGradient id="paint98_linear_234_18603" x1="0" y1="0.5" x2="1440" y2="0.5" gradientUnits="userSpaceOnUse">
<stop stop-color="white"/>
<stop offset="1" stop-color="white" stop-opacity="0.5"/>
</linearGradient>
<linearGradient id="paint99_linear_234_18603" x1="0" y1="0.5" x2="1440" y2="0.5" gradientUnits="userSpaceOnUse">
<stop stop-color="white"/>
<stop offset="1" stop-color="white" stop-opacity="0.5"/>
</linearGradient>
<linearGradient id="paint100_linear_234_18603" x1="0" y1="0.5" x2="1440" y2="0.5" gradientUnits="userSpaceOnUse">
<stop stop-color="white"/>
<stop offset="1" stop-color="white" stop-opacity="0.5"/>
</linearGradient>
</defs>
</svg>
